<?xml version="1.0" encoding="utf-8"?>
<!-- Generator: Adobe Illustrator 18.1.1, SVG Export Plug-In . SVG Version: 6.00 Build 0)  -->
<!DOCTYPE svg PUBLIC "-//W3C//DTD SVG 1.1//EN" "http://www.w3.org/Graphics/SVG/1.1/DTD/svg11.dtd">
<svg xmlns="http://www.w3.org/2000/svg" xmlns:xlink="http://www.w3.org/1999/xlink" version="1.1" id="Chorizo" x="0px" y="0px" viewBox="0 0 512 512" style="enable-background:new 0 0 512 512;" xml:space="preserve">
<g>
	<path fill="none" stroke="#BC5D2E" stroke-width="1.5" stroke-linecap="round" stroke-linejoin="round" stroke-miterlimit="10" d="
		M299.7,118.5c0,1.1-0.5,1.7-0.5,1.7c-0.6,0.7-1,2.1-1,3c0,0,0,0.8-0.6,1.7c-0.6,0.9-1.4,1.1-1.4,1.1c-0.9,0.3-2,1.1-2.6,1.9
		c0,0-0.4,0.6-1.5,1c-1,0.3-1.8,0.1-1.8,0.1c-0.9-0.3-2.3-0.3-3.2,0c0,0-0.8,0.3-1.8-0.1c-1.1-0.3-1.5-1-1.5-1
		c-0.5-0.8-1.7-1.6-2.6-1.9c0,0-0.8-0.2-1.4-1.1c-0.6-0.9-0.6-1.7-0.6-1.7c0-0.9-0.4-2.3-1-3c0,0-0.5-0.6-0.5-1.7
		c0-1.1,0.5-1.7,0.5-1.7c0.6-0.7,1-2.1,1-3c0,0,0-0.8,0.6-1.7c0.6-0.9,1.4-1.1,1.4-1.1c0.9-0.3,2-1.1,2.6-1.9c0,0,0.4-0.6,1.5-1
		c1-0.3,1.8-0.1,1.8-0.1c0.9,0.3,2.3,0.3,3.2,0c0,0,0.8-0.3,1.8,0.1c1.1,0.3,1.5,1,1.5,1c0.5,0.8,1.7,1.6,2.6,1.9
		c0,0,0.8,0.2,1.4,1.1c0.6,0.9,0.6,1.7,0.6,1.7c0,0.9,0.4,2.3,1,3C299.2,116.8,299.7,117.4,299.7,118.5z"/>
	<g>
		
			<line fill="none" stroke="#BC5D2E" stroke-width="1.5" stroke-linecap="round" stroke-linejoin="round" stroke-miterlimit="10" x1="282.7" y1="119.6" x2="282.7" y2="119.6"/>
			<line fill="none" stroke="#BC5D2E" stroke-width="1.5" stroke-linecap="round" stroke-linejoin="round" stroke-miterlimit="10" x1="286" y1="113.6" x2="286" y2="113.6"/>
			<line fill="none" stroke="#BC5D2E" stroke-width="1.5" stroke-linecap="round" stroke-linejoin="round" stroke-miterlimit="10" x1="292.8" y1="114.5" x2="292.8" y2="114.5"/>
			<line fill="none" stroke="#BC5D2E" stroke-width="1.5" stroke-linecap="round" stroke-linejoin="round" stroke-miterlimit="10" x1="293.6" y1="122.1" x2="293.6" y2="122.1"/>
			<line fill="none" stroke="#BC5D2E" stroke-width="1.5" stroke-linecap="round" stroke-linejoin="round" stroke-miterlimit="10" x1="286.9" y1="124.6" x2="286.9" y2="124.6"/>
			<line fill="none" stroke="#BC5D2E" stroke-width="1.5" stroke-linecap="round" stroke-linejoin="round" stroke-miterlimit="10" x1="288.9" y1="118.9" x2="288.9" y2="118.9"/>
	</g>
</g>
</svg>
